<svg xmlns="http://www.w3.org/2000/svg" width="260" height="241"><g fill="none" fill-rule="evenodd"><g stroke="#639" stroke-linecap="round" stroke-linejoin="round" stroke-width="3"><path d="M60 201c0-9.454.762-18.694 18.26-26.087M60 201c9.454 0 18.694-.762 26.087-18.26"/><path fill="#D8D8F9" d="M99.13 127.957H80.87l-15.653 20.87h18.261m18.262 28.695l-10.436 7.826s-4.132-1.524-7.826-5.218l-2.608-2.608c-3.694-3.694-5.218-7.826-5.218-7.826l7.826-10.435m49.565 2.609v18.26l-20.87 15.653v-18.261"/><path fill="#F0F0FF" d="M93.913 169.696c5.437 5.436 13.044 10.434 13.044 10.434C174.783 130.132 180 107.087 180 81c-26.087 0-49.132 5.217-99.13 73.043 0 0 4.998 7.607 10.434 13.044l2.609 2.609z"/><path fill="#FFF" d="M153.913 117.522c0 5.765-4.67 10.435-10.435 10.435a10.432 10.432 0 01-10.435-10.435c0-5.765 4.67-10.435 10.435-10.435 5.765 0 10.435 4.67 10.435 10.435z"/></g><path d="M238.636 139.92c0-17.915 3.478-21.399 21.364-21.399-17.886 0-21.364-3.484-21.364-21.399 0 17.915-3.478 21.4-21.365 21.4 17.887 0 21.365 3.483 21.365 21.398zM80.913 37.633c0-15.753 3.06-18.817 18.789-18.817-15.73 0-18.789-3.063-18.789-18.816 0 15.753-3.058 18.816-18.788 18.816 15.73 0 18.788 3.064 18.788 18.817zm132.07 172.27c0-7.923 1.537-9.464 9.44-9.464-7.903 0-9.44-1.541-9.44-9.465 0 7.924-1.537 9.465-9.44 9.465 7.903 0 9.44 1.54 9.44 9.464zM37.331 96.991c0-11.217 2.176-13.398 13.365-13.398-11.189 0-13.365-2.182-13.365-13.4 0 11.218-2.175 13.4-13.364 13.4 11.189 0 13.364 2.18 13.364 13.398zM101.484 241c0-6.792 1.318-8.112 8.092-8.112-6.774 0-8.092-1.32-8.092-8.112 0 6.791-1.317 8.112-8.091 8.112 6.774 0 8.091 1.32 8.091 8.112zM5.333 182.046l21.213-21.213 2.121 2.121-21.213 21.213zm153 24l21.213-21.213 2.121 2.121-21.213 21.213zM.262 205.117l35.355-35.355 2.121 2.121-35.355 35.355zM101.333 70.046l21.213-21.213 2.121 2.121-21.213 21.213zm50.929 127.071l35.355-35.355 2.121 2.121-35.355 35.355z" fill="#54D8A3"/></g></svg>